<svg id="Layer_1" data-name="Layer 1" xmlns="http://www.w3.org/2000/svg" xmlns:xlink="http://www.w3.org/1999/xlink" viewBox="0 0 396 454"><defs><style>.cls-1{fill:#7a9afd;}.cls-2{filter:url(#filter-2);}.cls-3{fill:#1a2750;}.cls-4{fill:#9ab3ff;fill-opacity:0.6;}.cls-5{fill:#f8a28b;}.cls-6{filter:url(#filter-4);}</style><filter id="filter-2" x="-17.8%" y="-13.8%" width="135.5%" height="128.8%" name="filter-2"><feOffset result="shadowOffsetOuter1" dx="13" dy="7" in="SourceAlpha"/><feGaussianBlur result="shadowBlurOuter1" stdDeviation="8.5" in="shadowOffsetOuter1"/><feColorMatrix values="0 0 0 0 0 0 0 0 0 0 0 0 0 0 0 0 0 0 0.5 0" in="shadowBlurOuter1"/></filter><filter id="filter-4" x="-2.8%" y="-2.7%" width="105.6%" height="105.3%" name="filter-4"><feGaussianBlur result="shadowBlurInner1" stdDeviation="3.5" in="SourceAlpha"/><feOffset result="shadowOffsetInner1" dx="7" dy="5" in="shadowBlurInner1"/><feComposite result="shadowInnerInner1" k2="-1" k3="1" operator="arithmetic" in="shadowOffsetInner1" in2="SourceAlpha"/><feColorMatrix values="0 0 0 0 0 0 0 0 0 0 0 0 0 0 0 0 0 0 0.5 0" in="shadowInnerInner1"/></filter></defs><g id="Page-1"><g id="prop_1" data-name="prop 1"><path id="Path" class="cls-1" d="M91.71,453.63H343.48c19.55,0,34.72-21.48,40.94-49.78s15.52-305.92,7.47-336C388.57,55.42,375.26,42.17,351,40.36,299.33,36.51,217.22,59.5,133.38,155.61,50.09,251.1,38.25,346.16,39.05,392.11,40,447.39,79.87,453.63,91.71,453.63Z"/><g id="Combined-Shape"><g class="cls-2"><path id="path-1" d="M40.75,413.32a90.36,90.36,0,0,1-2.7-21.21c-.8-45.95,11-141,94.33-236.5C216.22,59.5,298.33,36.51,350,40.36c1.21.09,2.4.2,3.56.35,4.94,61.43-3.37,298.13-9.1,324.14-6.22,28.3-21.39,49.78-40.94,49.78H51.71A51.11,51.11,0,0,1,40.75,413.32Z"/></g><path id="path-1-2" data-name="path-1" class="cls-3" d="M40.75,413.32a90.36,90.36,0,0,1-2.7-21.21c-.8-45.95,11-141,94.33-236.5C216.22,59.5,298.33,36.51,350,40.36c1.21.09,2.4.2,3.56.35,4.94,61.43-3.37,298.13-9.1,324.14-6.22,28.3-21.39,49.78-40.94,49.78H51.71A51.11,51.11,0,0,1,40.75,413.32Z"/></g><path id="Path-2" data-name="Path" class="cls-4" d="M52.71,414.63H304.48c19.55,0,34.72-21.48,40.94-49.78s15.52-305.92,7.47-336C349.57,16.42,336.26,3.17,312,1.36,260.33-2.49,178.22,20.5,94.38,116.61,11.09,212.1-.75,307.16.05,353.11,1,408.39,40.87,414.63,52.71,414.63Z"/><g id="Path-2-2" data-name="Path-2"><path id="path-3" class="cls-5" d="M178,330c4.88-7.32,15.32-8.77,18.5-9s57.17.78,68.41,0c1.42-.1,2.21-1.53,2.19-3.37-.21-21.43,12.45-157.74,11.38-169.15a1,1,0,0,0-1.44-.65c-13.31,7.35-19,11.15-25,15.67s-12.26,9.71-22.72,20.33c-24.78,25.17-37.75,42.3-53.53,64.93C138.9,301.61,124.48,364.41,122,369.61c-3.49,7.4-13.92,7.87-23.54,5.26s-16.12-8.42-14.8-15.15,5.25-35.71,28.89-82.91,33-60.16,57.09-88.81c13-15.43,37.42-38.86,51-49.86,29.18-23.63,52.85-32.5,56.27-34s21.17-8.92,29.34-2.86,9.12,13,9.77,24.69c.57,10.3-9.23,168.15-10.35,212-.42,16.21-9,20-14.51,20.86-2.49.37-87.17-.1-94.67-.1-4.48,0-14.27-2.58-18.5-8.22-1.35-1.79-2.44-4-2.47-5,0-.16,0-.58,0-1,0-2,0-6.25,0-7.5A13,13,0,0,1,178,330Z"/><g class="cls-6"><path id="path-3-2" data-name="path-3" d="M178,330c4.88-7.32,15.32-8.77,18.5-9s57.17.78,68.41,0c1.42-.1,2.21-1.53,2.19-3.37-.21-21.43,12.45-157.74,11.38-169.15a1,1,0,0,0-1.44-.65c-13.31,7.35-19,11.15-25,15.67s-12.26,9.71-22.72,20.33c-24.78,25.17-37.75,42.3-53.53,64.93C138.9,301.61,124.48,364.41,122,369.61c-3.49,7.4-13.92,7.87-23.54,5.26s-16.12-8.42-14.8-15.15,5.25-35.71,28.89-82.91,33-60.16,57.09-88.81c13-15.43,37.42-38.86,51-49.86,29.18-23.63,52.85-32.5,56.27-34s21.17-8.92,29.34-2.86,9.12,13,9.77,24.69c.57,10.3-9.23,168.15-10.35,212-.42,16.21-9,20-14.51,20.86-2.49.37-87.17-.1-94.67-.1-4.48,0-14.27-2.58-18.5-8.22-1.35-1.79-2.44-4-2.47-5,0-.16,0-.58,0-1,0-2,0-6.25,0-7.5A13,13,0,0,1,178,330Z"/></g></g></g></g></svg>